<?xml version="1.0" encoding="utf-8"?>
<!-- Uploaded to: SVG Repo, www.svgrepo.com, Generator: SVG Repo Mixer Tools -->
<svg fill="#000000" width="800px" height="800px" viewBox="0 0 32 32" version="1.1" xmlns="http://www.w3.org/2000/svg">
<title>chicken-leg</title>
<path d="M19.422 3.203c0.506 0.087 1.003 0.301 1.47 0.669 2.133 1.679 0.83 3.394-0.822 3.002 2.22 2.456 0.061 4.345-2.307 3.096 0.627 1.64-1.398 2.592-3.128 0.948l0-0c-0.091-0.086-0.174-0.176-0.251-0.268-1.329 2.796-1.624 4.75-1.676 6.348-0.024 0.73 0.060 1.182 0.209 1.471-2.697 2.594-6.83 5.671-8.465 6.28-1.603 0.597-2.178 0.059-3.068 1.142-0.846 1.007 0.768 3.312 2.576 2.045-1.648 2.58 1.643 4.62 2.645 1.003 0.831-3.101 5.187-6.721 8.281-9.321 0.020 0.037 0.038 0.075 0.056 0.117 2.382 0.136 6.19 0.317 11.33-2.339 10.817-5.591 2.445-23.118-6.852-14.192zM3.962 27.935v0 0 0zM28.71 5.63c1.601 3.23 0.438 5.9-3.983 7.876 2.206-2.375 4.043-4.932 3.983-7.876zM17.534 18.040c4.062-1.415 8.348-3.669 11.892-6.234-2.392 3.264-6.321 6.378-11.892 6.234z"></path>
</svg>