<svg xmlns="http://www.w3.org/2000/svg" width="230.977" height="230.977" viewBox="0 0 3333 3333">
  <defs>
    <style>
      .cls-1 {
        fill: none;
        stroke: #358e67;
        stroke-width: 78.37px;
        fill-rule: evenodd;
      }
    </style>
  </defs>
  <path class="cls-1" d="M703,1084m107,25s-1.264,192.57-1,219c0.264,8.98,12.24,75,88,75s1542.22-.47,1552-1,66.81-11.8,75-75V1108Z"/>
  <path class="cls-1" d="M809,957V379l308.02,322L1648.06,62,2184.1,701,2524,361.148V959Z"/>
  <path class="cls-1" d="M101,3198s13.144-103.03,33.245-227.02C157.892,2825.11,191.167,2650.25,224,2580c37.3-79.8,139.783-275.71,207-350s161.117-186.94,256-260,236.194-177.72,430-244,186-59,186-59l183,186-78,957s-10.62,47.72,44,129l66,93,75,106s61.38,123.31,142,3,145-204,145-204,62.53-50.41,39-184l-74-901,181-184s189.71,34.4,405,158,300.48,215.04,377,294,293.06,377.36,354,610,78.63,425.7,67,475-31.63,66.94-56,79-45,13-45,13H198S101,3288.32,101,3198Z"/>
</svg>
